<?xml version="1.0" encoding="utf-8"?>
<!-- Generator: Adobe Illustrator 25.2.1, SVG Export Plug-In . SVG Version: 6.00 Build 0)  -->
<svg version="1.1" id="Layer_1" xmlns="http://www.w3.org/2000/svg" xmlns:xlink="http://www.w3.org/1999/xlink" x="0px" y="0px"
	 viewBox="0 0 98 23" style="enable-background:new 0 0 98 23;" xml:space="preserve">
<style type="text/css">
	.st0{display:none;}
	.st1{display:inline;}
	.st2{font-family:'BebasNeue';}
	.st3{font-size:24.288px;}
</style>
<g id="Layer_1_1_" class="st0">
	<desc>Created with Sketch.</desc>
	<g id="logo">
		<path id="SHOPY" class="st1" d="M7.8,23c0.4,0,0.9,0,1.3-0.1c2.4-0.5,4.4-2.2,5-4.3c0.3-1,0.3-2.1-0.1-3.1c-0.3-1.1-1-2-2-2.9
			c-0.5-0.4-1.1-1.1-1.7-1.6L6.8,7.3c-0.9-0.9-1-1.6-0.8-2C6.1,4.7,6.8,4.2,7.6,4c0.6-0.1,1.8-0.1,2.9,1.3l2.7-2.2
			c-0.9-1-1.9-1.8-3-2.2C9.1,0.4,8,0.3,6.9,0.6C5.9,0.8,5,1.2,4.2,1.9C3.4,2.5,2.9,3.4,2.6,4.3S2.3,6.2,2.7,7.2C3,8.1,3.5,9,4.4,9.8
			l2.7,2.6c0.1,0.1,1.7,1.7,2.7,2.6c0.6,0.6,1.3,1.5,1,2.5c-0.3,0.9-1.2,1.6-2.3,1.9c-0.7,0.1-1.4,0.1-2-0.2
			c-0.8-0.3-1.6-0.9-2.2-1.7l-2.8,2.2c1,1.4,2.3,2.3,3.7,2.9C6,22.9,6.9,23,7.8,23z M21.3,23v-9.6h8.9V23h3.5V0.7h-3.5v9.5h-8.9V0.7
			h-3.5V23H21.3z M48.7,23c1.5,0,3-0.3,4.3-0.9s2.5-1.4,3.5-2.4s1.8-2.2,2.4-3.5s0.9-2.8,0.9-4.3s-0.3-3-0.9-4.3
			C58.4,6.2,57.6,5,56.6,4s-2.2-1.8-3.5-2.4c-1.4-0.6-2.8-0.9-4.3-0.9s-3,0.3-4.3,0.9C43,2.2,41.9,3,40.8,4c-1,1.1-1.8,2.2-2.4,3.5
			c-0.6,1.4-0.9,2.8-0.9,4.3s0.3,3,0.9,4.3s1.4,2.5,2.4,3.5s2.2,1.8,3.5,2.4C45.7,22.7,47.2,23,48.7,23z M48.7,19.5
			c-2,0-4-0.8-5.4-2.2c-1.4-1.4-2.2-3.4-2.2-5.4s0.8-4,2.2-5.4s3.4-2.2,5.4-2.2s4,0.8,5.4,2.2s2.2,3.4,2.2,5.4s-0.8,4-2.2,5.4
			C52.7,18.7,50.7,19.5,48.7,19.5z M67.2,23v-7.5h3.1c2.9,0,4.7-1.2,5.6-2.2c1.2-1.3,1.8-3.1,1.8-5.2s-0.6-3.8-1.8-5.2
			c-0.9-1-2.6-2.2-5.6-2.2h-6.6V23H67.2z M70.4,12.3h-3.1V3.9h3.1c1.4,0,2.5,0.4,3.2,1.2c0.8,0.9,1,2.2,1,3c0,0.9-0.2,2.2-1,3.1
			C72.9,11.9,71.8,12.3,70.4,12.3z M89.4,23V11.4l7.8-10.6h-4l-5.5,7.6l-5.5-7.6h-4.1l7.8,10.6V23H89.4z"/>
	</g>
</g>
<g id="Layer_2_1_">
	<text transform="matrix(1 0 0 1 -2.441406e-04 17.657)" class="st2 st3">HiMonkeyCO</text>
</g>
</svg>
